<?xml version="1.0" standalone="no"?>
<!DOCTYPE svg PUBLIC "-//W3C//DTD SVG 1.1//EN" "http://www.w3.org/Graphics/SVG/1.1/DTD/svg11.dtd" >
<svg xmlns="http://www.w3.org/2000/svg">
<metadata>Generated by IcoMoon</metadata>
<defs>
<font id="icomoon" horiz-adv-x="1024">
<font-face units-per-em="1024" ascent="870.850439882698" descent="-153.14956011730206" />
<missing-glyph horiz-adv-x="1024" />
<glyph unicode="&#x20;" horiz-adv-x="0" d="" />
<glyph unicode="&#xe901;" glyph-name="arrow-1-b" d="M989.458 608.64c-38.552 38.552-115.652 38.552-154.201 0l-321.253-334.103-321.253 334.103c-38.552 38.552-115.652 38.552-154.201 0s-38.552-115.652 0-154.201l398.354-411.204c38.552-38.552 115.652-38.552 154.201 0l398.354 411.204c51.4 38.552 51.4 115.652 0 154.201z" />
<glyph unicode="&#xe902;" glyph-name="arrow-1-l" d="M642.506 801.392l-411.204-398.354c-38.552-38.552-38.552-115.652 0-154.201l411.204-398.354c38.552-38.552 115.652-38.552 154.201 0s38.552 115.652 0 154.201l-334.103 321.253 334.103 321.253c38.552 38.552 38.552 115.652 0 154.201-38.552 51.4-115.652 51.4-154.201 0z" />
<glyph unicode="&#xe903;" glyph-name="arrow-1-r" d="M231.302 801.392c-38.552-38.552-38.552-115.652 0-154.201l334.103-321.253-334.103-321.253c-38.552-38.552-38.552-115.652 0-154.201s115.652-38.552 154.201 0l411.204 398.354c38.552 38.552 38.552 115.652 0 154.201l-411.204 398.354c-38.552 51.4-115.652 51.4-154.201 0z" />
<glyph unicode="&#xe904;" glyph-name="arrow-1-t" d="M989.458 197.436l-398.354 411.204c-38.552 38.552-115.652 38.552-154.201 0l-398.354-411.204c-38.552-38.552-38.552-115.652 0-154.201s115.652-38.552 154.201 0l321.253 334.103 321.253-334.103c38.552-38.552 115.652-38.552 154.201 0 51.4 38.552 51.4 115.652 0 154.201z" />
<glyph unicode="&#xe905;" glyph-name="arrow-2-b" d="M0 775.692h1028.010l-514.004-925.21-514.004 925.21z" />
<glyph unicode="&#xe906;" glyph-name="arrow-2-l" d="M989.458 839.941v-1028.010l-925.21 514.004 925.21 514.004z" />
<glyph unicode="&#xe907;" glyph-name="arrow-2-r" d="M64.252-188.069v1028.010l925.21-514.004-925.21-514.004z" />
<glyph unicode="&#xe908;" glyph-name="arrow-2-t" d="M1028.010 4.684h-1028.010l514.004 642.506 514.004-642.506z" />
<glyph unicode="&#xe909;" glyph-name="arrow-3-b" d="M499.319-210.097l308.403 315.745h-242.316l-7.342 734.293h-146.858l7.342-734.293-234.973-7.342z" />
<glyph unicode="&#xe90a;" glyph-name="arrow-3-l" d="M0 340.623l315.745-308.403v242.316l734.293 7.342-7.342 146.858-734.293-7.342v234.973z" />
<glyph unicode="&#xe90b;" glyph-name="arrow-3-r" d="M1050.037 347.965l-315.745 308.403v-234.973l-734.293-14.685v-146.858l734.293 14.685 7.342-242.316z" />
<glyph unicode="&#xe90c;" glyph-name="arrow-3-t" d="M491.976 839.941l-308.403-315.745h234.973l14.685-734.293 146.858 7.342-14.685 734.293h242.316z" />
<glyph unicode="&#xe90d;" glyph-name="back" d="M427.020 333.844l371.665 371.665c31.632 31.632 31.632 79.077 0 110.709s-79.077 31.632-110.709 0l-419.111-419.111c0 0-7.909 0-7.909-7.909-15.814-7.909-23.723-31.632-23.723-55.354s7.909-39.54 23.723-55.354c0 0 7.909 0 7.909-7.909l419.111-419.111c31.632-31.632 79.077-31.632 110.709 0s31.632 79.077 0 110.709l-371.665 371.665z" />
<glyph unicode="&#xe90e;" glyph-name="clock" d="M514.004 595.177c-14.685 0-24.477-9.792-24.477-24.477v-318.193c-4.896 0-14.685 0-19.581-4.896l-93.012-93.012c-9.792-9.792-9.792-24.477 0-34.265s24.477-9.792 34.265 0l93.012 93.012c4.896 0 4.896-4.896 9.792-4.896 14.685 0 24.477 9.792 24.477 24.477v342.67c0 9.792-9.792 19.581-24.477 19.581zM514.004 839.941c-283.926 0-514.004-230.078-514.004-514.004s230.078-514.004 514.004-514.004c283.926 0 514.004 230.078 514.004 514.004s-230.078 514.004-514.004 514.004zM514.004-134.22c-225.183 0-460.156 230.078-460.156 460.156 0 225.183 230.078 460.156 460.156 460.156s460.156-230.078 460.156-460.156c0-225.183-234.973-460.156-460.156-460.156z" />
<glyph unicode="&#xe90f;" glyph-name="close-1" d="M1028.010 747.683l-98.847 92.257-415.157-421.748-421.748 421.748-92.257-92.257 421.748-421.748-421.748-415.157 92.257-98.847 421.748 421.748 415.157-421.748 98.847 98.847-421.748 415.157z" />
<glyph unicode="&#xe910;" glyph-name="close-2" d="M632.622 321.543l377.816 377.816c35.145 35.145 35.145 87.865 0 114.223-35.145 35.145-87.865 35.145-114.223 0l-377.816-369.029-377.816 369.029c-35.145 35.145-87.865 35.145-114.223 0-35.145-35.145-35.145-87.865 0-114.223l377.816-377.816-377.816-377.816c-35.145-35.145-35.145-87.865 0-114.223 35.145-35.145 87.865-35.145 114.223 0l377.816 377.816 377.816-377.816c35.145-35.145 87.865-35.145 114.223 0s35.145 87.865 0 114.223l-377.816 377.816z" />
<glyph unicode="&#xe911;" glyph-name="download" d="M892.745 136.566v-216.423h-757.481v216.423h-108.211v-324.634h973.903v324.634h-108.211zM568.111 190.671l324.634 378.741h-108.211l-216.423-254.297v524.827h-108.211v-524.827l-216.423 254.297h-108.211l324.634-378.741h108.211z" />
<glyph unicode="&#xe912;" glyph-name="email" d="M1050.037-11.838v0 0 741.636h-1050.037v-785.694h1042.695v44.058zM961.923 590.282v-514.004l-257.002 257.002 257.002 257.002zM873.808 656.367l-323.090-323.090c-14.685-14.685-44.058-14.685-58.742 0l-323.090 323.090h704.92zM95.458 597.625l257.002-257.002-257.002-257.002v514.004zM117.488 10.191l279.031 286.374 95.458-95.458c22.028-22.028 58.742-22.028 73.43 0l95.458 88.115 271.689-271.689h-815.065z" />
<glyph unicode="&#xe913;" glyph-name="fail" d="M514.004 839.941c-284.166 0-514.004-229.839-514.004-514.004s229.839-514.004 514.004-514.004 514.004 229.839 514.004 514.004c0 284.166-229.839 514.004-514.004 514.004zM514.004-112.848c-242.376 0-438.785 196.408-438.785 438.785s196.408 438.785 438.785 438.785 438.785-196.408 438.785-438.785-196.408-438.785-438.785-438.785zM647.73 413.694l-33.433 33.433-96.116-96.116-4.179 4.179-4.179-4.179-104.473 104.473-33.433-33.433 108.652-108.652-96.116-100.294 33.433-33.433 96.116 100.294 4.179-4.179 4.179 4.179 108.652-108.652 33.433 33.433-108.652 108.652 91.937 100.294z" />
<glyph unicode="&#xe914;" glyph-name="link" d="M890.942-51.001h-753.873v753.873h342.67v137.068h-479.738v-1028.010h1028.010v479.738h-137.068v-342.67zM685.34 839.941v-137.068h130.215l-472.884-411.204 68.535-68.535 479.738 418.057v-143.921h137.068v342.67h-342.67z" />
<glyph unicode="&#xe915;" glyph-name="location" d="M514.004 839.941c-196.663 0-357.569-165.374-357.569-370.977s317.342-657.033 357.569-657.033c31.287 0 357.569 451.431 357.569 657.033s-160.906 370.977-357.569 370.977zM514.004-138.903c-31.287 0-308.403 429.083-308.403 607.867 0 174.315 138.557 317.342 308.403 317.342s308.403-143.028 308.403-317.342c0-178.784-286.055-607.867-308.403-607.867zM514.004 620.931c-80.452 0-143.028-67.043-143.028-147.498s62.574-147.498 143.028-147.498c80.452 0 143.028 71.515 143.028 151.966 0 75.983-67.043 143.028-143.028 143.028zM509.536 357.223c-62.574 0-111.74 53.634-111.74 116.209 0 67.043 49.166 116.209 111.74 116.209s111.74-49.166 111.74-116.209c4.468-58.106-49.166-116.209-111.74-116.209z" />
<glyph unicode="&#xe916;" glyph-name="pass" d="M514.004 839.941c-285.987 0-514.004-228.017-514.004-514.004s228.017-514.004 514.004-514.004 514.004 228.017 514.004 514.004-231.881 514.004-514.004 514.004zM514.004-122.368c-247.341 0-448.305 200.964-448.305 448.305s200.964 452.17 448.305 452.17 448.305-200.964 448.305-448.305-200.964-452.17-448.305-452.17zM676.322 414.824l-173.912-173.912-108.211 112.075-34.783-34.783 108.211-112.075 34.783-34.783 34.783 34.783 173.912 177.776-34.783 30.917z" />
<glyph unicode="&#xe917;" glyph-name="pause" d="M85.667-188.069h257.002v1028.010h-257.002v-1028.010zM685.34 839.941v-1028.010h257.002v1028.010h-257.002z" />
<glyph unicode="&#xe918;" glyph-name="pdf" horiz-adv-x="841" d="M765.139 394.001v262.87l-206.541 183.070h-558.599v-1028.010h765.139v323.893h75.105v258.176h-75.105zM722.893-136.433h-680.646v929.434h502.27l4.696-4.696v-154.905h164.293l14.083-14.083v-225.317h-394.305v-258.176h389.61v-272.258zM629.010 215.625c-9.388-9.388-23.471-14.083-37.554-14.083h-46.942v131.434h46.942c14.083 0 28.164-4.696 37.554-14.083 14.083-14.083 14.083-32.859 14.083-51.634 0-14.083 0-32.859-14.083-51.634zM525.739 295.425c0-23.471-18.775-42.246-42.246-42.246h-28.164v-51.634h-23.471v131.434h51.634c28.164 4.696 42.246-14.083 42.246-37.554zM751.057 314.201h-61.023v-32.859h51.634v-23.471h-51.634v-56.33h-28.164v131.434h89.188v-18.775zM591.458 314.201h-18.775v-84.493h18.775c9.388 0 14.083 4.696 18.775 9.388s4.696 14.083 4.696 37.554c0 18.775 0 28.164-4.696 32.859s-9.388 4.696-18.775 4.696zM455.329 314.201v-37.554h23.471c14.083 0 18.775 9.388 18.775 18.775s-9.388 18.775-18.775 18.775h-23.471z" />
<glyph unicode="&#xe919;" glyph-name="search" horiz-adv-x="1080" d="M1063.803-82.22l-259.201 259.201c113.401 167.4 97.201 399.601-54.001 550.801-172.801 167.4-448.201 167.4-621.001 0s-172.801-442.801 0-615.602c167.4-162 432.001-167.4 604.802-16.2l253.801-253.801c21.6-21.6 54.001-21.6 75.601 0s21.6 54.001 0 75.601zM696.602 160.78c-140.4-140.4-372.602-140.4-513.001 0s-140.4 367.201 0 507.602c140.4 140.4 372.602 140.4 513.001 0 140.4-135.001 140.4-367.201 0-507.602z" />
<glyph unicode="&#xe91a;" glyph-name="youtube" d="M795.457 334.934h-563.909c-89.634 0-162.293-72.733-162.293-162.348v-130.447c0-89.616 72.66-162.33 162.293-162.33h563.909c89.616 0 162.293 72.715 162.293 162.33v130.447c0 89.616-72.679 162.348-162.293 162.348zM350.022 233.381h-52.425v-260.496h-50.649v260.496h-52.389v44.309h155.466v-44.309zM498.113-27.117h-44.926v24.637c-8.351-9.112-16.957-16.069-25.94-20.759-8.986-4.892-17.662-7.174-26.103-7.174-10.434 0-18.188 3.314-23.496 10.055-5.217 6.722-7.881 16.683-7.881 30.142v187.981h44.926v-172.51c0-5.325 0.996-9.148 2.791-11.521 1.939-2.444 5.018-3.567 9.239-3.567 3.26 0 7.463 1.559 12.517 4.711 5.090 3.188 9.726 7.174 13.95 12.102v170.808h44.926v-224.9zM661.223 19.313c0-15.887-3.531-28.095-10.578-36.612-7.011-8.513-17.264-12.698-30.543-12.698-8.841 0-16.701 1.595-23.532 4.892-6.867 3.26-13.333 8.278-19.221 15.235v-17.228h-45.468v304.788h45.468v-98.167c6.087 6.794 12.517 12.065 19.239 15.597 6.867 3.606 13.766 5.343 20.759 5.343 14.221 0 25.052-4.747 32.554-14.329 7.535-9.582 11.286-23.622 11.286-42.027v-124.796zM817.068 79.908h-85.975v-42.37c0-11.813 1.448-20.037 4.383-24.619 3.007-4.6 8.062-6.849 15.253-6.849 7.463 0 12.625 1.939 15.633 5.816 2.899 3.913 4.455 12.427 4.455 25.651v10.235h46.248v-11.539c0-23.042-5.596-40.414-16.957-52.136-11.177-11.611-28.023-17.373-50.414-17.373-20.163 0-36.049 6.141-47.587 18.496-11.502 12.282-17.373 29.33-17.373 50.995v101.011c0 19.438 6.412 35.435 19.149 47.698 12.698 12.264 29.056 18.387 49.183 18.387 20.597 0 36.412-5.671 47.443-17.048 11.033-11.394 16.557-27.698 16.557-49.020v-57.335zM751.166 163.999c-7.174 0-12.282-2.011-15.398-6.213-3.188-3.95-4.675-10.705-4.675-20.145v-22.734h39.727v22.734c0 9.437-1.595 16.214-4.747 20.145-3.025 4.184-8.080 6.213-14.91 6.213zM596.154 164.76c-3.188 0-6.412-0.707-9.51-2.173-3.152-1.43-6.231-3.805-9.275-6.885v-140.086c3.606-3.624 7.174-6.412 10.651-8.007 3.459-1.541 7.047-2.408 10.87-2.408 5.524 0 9.546 1.595 12.138 4.82 2.553 3.188 3.859 8.278 3.859 15.47v116.136c0 7.643-1.52 13.369-4.711 17.3-3.296 3.877-7.971 5.834-14.022 5.834zM305.386 413.048h56.956v139.306l66.321 196.515h-57.896l-35.251-134.234h-3.586l-37.009 134.234h-57.371l67.841-202.782zM505.831 406.798c23.005 0 41.049 6.033 54.201 18.098 13.062 12.12 19.6 28.658 19.6 49.854v127.966c0 18.857-6.686 34.384-20 46.356-13.405 11.939-30.579 17.953-51.519 17.953-23.005 0-41.32-5.69-54.945-17.048-13.586-11.358-20.416-26.593-20.416-45.85v-128.4c0-21.069 6.647-37.735 19.925-50.233 13.279-12.445 31.031-18.694 53.15-18.694zM484.854 606.010c0 5.379 1.939 9.726 5.726 13.134 3.931 3.332 8.914 4.946 15.109 4.946 6.686 0 12.102-1.614 16.232-4.946 4.112-3.405 6.159-7.755 6.159-13.134v-134.977c0-6.611-2.011-11.867-6.087-15.651-4.040-3.805-9.474-5.671-16.304-5.671-6.686 0-11.849 1.812-15.47 5.614-3.567 3.715-5.379 8.932-5.379 15.723v134.959zM656.024 409.424c9.51 0 19.275 2.718 29.33 7.935 10.163 5.289 19.889 13.026 29.146 23.116v-27.445h50.595v247.726h-50.595v-188.036c-4.711-5.379-9.946-9.802-15.56-13.315-5.726-3.477-10.434-5.217-14.149-5.217-4.747 0-8.242 1.303-10.289 4.004-2.083 2.592-3.26 6.83-3.26 12.643v189.919h-50.522v-207.039c0-14.763 2.971-25.796 8.841-33.114 5.979-7.426 14.709-11.177 26.467-11.177z" />
<glyph unicode="&#xe91b;" glyph-name="play" d="M685.34 411.603v85.667h-85.667v85.667h-85.667v85.667h-85.667v85.667h-85.667v85.667h-85.667v-1028.010h85.667v85.667h85.667v85.667h85.667v85.667h85.667v85.667h85.667v85.667h85.667v171.335z" />
<glyph unicode="&#xe91c;" glyph-name="ppt" horiz-adv-x="838" d="M468.037 333.793v-37.443h23.402c14.041 0 18.721 9.361 18.721 18.721 4.681 9.361-4.681 18.721-14.041 18.721h-28.082zM585.046 333.793v-37.443h23.402c14.041 0 18.721 9.361 18.721 18.721s-9.361 18.721-18.721 18.721h-23.402zM762.9 413.359v262.101l-205.936 182.534h-556.964v-1025.001h762.9v322.945h74.886v257.42h-74.886zM725.457-115.523h-678.654v926.713h500.8l4.681-4.681v-154.452h163.813l14.041-14.041v-224.657h-393.151v-257.42h388.47v-271.461zM655.252 310.391c0-18.721-14.041-37.443-42.123-37.443h-23.402v-51.484h-28.082v131.050h51.484c23.402 0 42.123-18.721 42.123-42.123zM538.243 310.391c0-18.721-14.041-37.443-42.123-37.443h-28.082v-51.484h-23.402v131.050h51.484c23.402 0 42.123-18.721 42.123-42.123zM762.9 333.793h-32.763v-112.329h-28.082v112.329h-32.763v23.402h93.607v-23.402z" />
<glyph unicode="&#xe91d;" glyph-name="xls" horiz-adv-x="838" d="M762.9 413.359v262.101l-205.936 182.534h-556.964v-1025.001h762.9v322.945h74.886v257.42h-74.886zM720.777-115.523h-678.654v926.713h500.8l4.681-4.681v-154.452h163.813l14.041-14.041v-224.657h-393.151v-257.42h388.47v-271.461zM645.891 249.546v-23.402h-88.927v131.050h28.082v-107.648h60.844zM435.274 361.875h28.082l23.402-42.123 23.402 42.123h28.082l-37.443-65.525 42.123-70.206h-32.763l-28.082 46.804-23.402-46.804h-28.082l42.123 70.206-37.443 65.525zM688.014 315.071c4.681-4.681 4.681-4.681 14.041-4.681h14.041c14.041 0 18.721-4.681 23.402-9.361 9.361-4.681 9.361-18.721 9.361-28.082 4.681-37.443-18.721-51.484-46.804-51.484-18.721 0-37.443 4.681-46.804 18.721l18.721 18.721c9.361-9.361 18.721-9.361 32.763-9.361s23.402 4.681 23.402 18.721c0 4.681 0 9.361-4.681 9.361-4.681 4.681-4.681 4.681-14.041 4.681h-14.041c-9.361 0-18.721 4.681-28.082 9.361-4.681 4.681-9.361 14.041-9.361 28.082 0 23.402 18.721 42.123 46.804 42.123 18.721 0 32.763-4.681 42.123-14.041l-18.721-14.041c-9.361 9.361-18.721 9.361-28.082 9.361-14.041 0-18.721-9.361-18.721-18.721 0-4.681 0-4.681 4.681-9.361z" />
<glyph unicode="&#xe91e;" glyph-name="share" d="M849.821 127.188c-54.826 0-109.655-27.415-137.068-75.387l-342.67 212.455c6.855 13.705 6.855 34.265 6.855 47.975s0 27.415-6.855 41.12l349.523 212.455c27.415-41.12 82.24-68.535 137.068-68.535 95.948 0 171.335 75.387 171.335 171.335s-75.387 171.335-171.335 171.335-178.189-75.387-178.189-171.335c0-13.705 0-34.265 6.855-47.975l-342.67-212.455c-34.265 47.975-82.24 75.387-137.068 75.387-95.948 0-171.335-75.387-171.335-171.335s75.387-171.335 171.335-171.335c54.826 0 102.8 27.415 137.068 68.535l349.523-212.455c-6.855-13.705-6.855-27.415-6.855-41.12 0-95.948 75.387-171.335 171.335-171.335s171.335 75.387 171.335 171.335-89.095 171.335-178.189 171.335zM849.821 798.82c68.535 0 123.36-54.826 123.36-123.36s-54.826-123.36-123.36-123.36-123.36 54.826-123.36 123.36c0 61.68 54.826 123.36 123.36 123.36zM205.602 188.869c-68.535 0-123.36 54.826-123.36 123.36s54.826 123.36 123.36 123.36 123.36-54.826 123.36-123.36c0-68.535-54.826-123.36-123.36-123.36zM849.821-167.508c-68.535 0-123.36 54.826-123.36 123.36s54.826 123.36 123.36 123.36 123.36-54.826 123.36-123.36-54.826-123.36-123.36-123.36z" />
<glyph unicode="&#xe91f;" glyph-name="zoom-out" d="M925.21-21.017l-758.157 758.157h192.752v102.8h-359.803v-359.803h102.8v173.476l738.882-738.882h-173.476v-102.8h359.803v359.803h-102.8v-192.752zM391.929 274.536l-289.128-289.128v186.327h-102.8v-359.803h359.803v102.8h-186.327l289.128 289.128-70.676 70.676zM1028.010 769.264v70.676h-359.803v-102.8h186.327l-289.128-289.128 70.676-70.676 289.128 289.128v-186.327h102.8v289.128z" />
<glyph unicode="&#xe920;" glyph-name="doc" horiz-adv-x="838" d="M585.046 329.113c-4.681-4.681-4.681-14.041-4.681-37.443s0-32.763 4.681-37.443 9.361-9.361 18.721-9.361c9.361 0 14.041 4.681 18.721 9.361s4.681 14.041 4.681 37.443 0 32.763-4.681 37.443-9.361 9.361-18.721 9.361c-9.361 0-14.041-4.681-18.721-9.361zM482.078 333.793h-18.721v-84.246h18.721c9.361 0 14.041 4.681 18.721 9.361s4.681 14.041 4.681 37.443c4.681 14.041 0 23.402-4.681 28.082s-9.361 9.361-18.721 9.361zM762.9 413.359v262.101l-205.936 182.534h-556.964v-1025.001h762.9v322.945h74.886v257.42h-74.886zM720.777-115.523h-678.654v926.713h500.8l4.681-4.681v-154.452h163.813l14.041-14.041v-224.657h-393.151v-257.42h388.47v-271.461zM655.252 286.99c0-18.721 0-37.443-14.041-51.484-9.361-9.361-18.721-14.041-37.443-14.041-14.041 0-28.082 4.681-37.443 14.041-14.041 14.041-14.041 28.082-14.041 51.484s0 37.443 14.041 51.484c9.361 9.361 18.721 14.041 37.443 14.041 14.041 0 28.082-4.681 37.443-14.041 14.041-14.041 14.041-28.082 14.041-51.484zM519.521 235.505c-9.361-9.361-23.402-14.041-37.443-14.041h-46.804v131.050h46.804c14.041 0 28.082-4.681 37.443-14.041 14.041-14.041 14.041-32.763 14.041-51.484s4.681-32.763-14.041-51.484zM725.457 221.464c-14.041 0-28.082 4.681-37.443 14.041-14.041 14.041-14.041 28.082-14.041 51.484s0 37.443 14.041 51.484c9.361 9.361 23.402 14.041 37.443 14.041 23.402 0 42.123-14.041 46.804-42.123h-23.402c-4.681 9.361-9.361 18.721-23.402 18.721-9.361 0-14.041-4.681-18.721-4.681-4.681-4.681-4.681-14.041-4.681-37.443s0-32.763 4.681-37.443c4.681-4.681 9.361-4.681 18.721-4.681 14.041 0 18.721 9.361 23.402 18.721h28.082c-4.681-28.082-28.082-42.123-51.484-42.123z" />
<glyph unicode="&#xe921;" glyph-name="checkmark" d="M864.845 729.869l-480.469-480.469-224.219 224.219-160.156-160.156 384.375-384.375 640.626 640.626z" />
<glyph unicode="&#xe928;" glyph-name="error" d="M513.001 851.982l-513.001-1026.003h1026.003l-513.001 1026.003zM564.302-71.42h-102.6v102.6h102.6v-102.6zM461.701 133.78v359.101h102.6v-359.101h-102.6z" />
<glyph unicode="&#xe929;" glyph-name="arrow-4-l" horiz-adv-x="1128" d="M1026.003 441.581h-697.682l266.761 256.5c30.78 30.78 30.78 92.34 0 123.12s-92.34 30.78-123.12 0l-441.181-420.661c-30.78-30.78-30.78-92.34 0-123.12l430.921-420.661c30.78-30.78 92.34-30.78 123.12 0s30.78 92.34 0 123.12l-266.761 256.5h707.942c61.56 0 102.6 41.040 102.6 102.6s-51.3 102.6-102.6 102.6z" />
<glyph unicode="&#xe92a;" glyph-name="arrow-4-r" horiz-adv-x="1128" d="M1097.823 400.541l-430.921 420.661c-30.78 30.78-92.34 30.78-123.12 0s-30.78-92.34 0-123.12l266.761-256.5h-707.942c-61.56 0-102.6-41.040-102.6-102.6s41.040-102.6 102.6-102.6h697.682l-256.5-256.5c-30.78-30.78-30.78-92.34 0-123.12s92.34-30.78 123.12 0l430.921 420.661c41.040 30.78 41.040 92.34 0 123.12z" />
<glyph unicode="&#xe92b;" glyph-name="arrow-4-b" horiz-adv-x="933" d="M904.749 357.636c-27.981 27.981-83.946 27.981-111.927 0l-233.182-242.51v643.583c0 55.965-37.308 93.273-93.273 93.273s-93.273-37.308-93.273-93.273v-634.256l-233.182 233.182c-27.981 27.981-83.946 27.981-111.927 0s-27.981-83.946 0-111.927l382.419-391.747c27.981-27.981 83.946-27.981 111.927 0l382.419 391.747c37.308 27.981 37.308 83.946 0 111.927z" />
<glyph unicode="&#xe92c;" glyph-name="arrow-4-t" horiz-adv-x="933" d="M904.749 432.254l-382.419 391.747c-27.981 27.981-83.946 27.981-111.927 0l-382.419-391.747c-27.981-27.981-27.981-83.946 0-111.927s83.946-27.981 111.927 0l233.182 242.51v-643.583c0-55.965 37.308-93.273 93.273-93.273s93.273 37.308 93.273 93.273v634.256l233.182-242.51c27.981-27.981 83.946-27.981 111.927 0 37.308 37.308 37.308 93.273 0 121.254z" />
<glyph unicode="&#xe92f;" glyph-name="earth" horiz-adv-x="1001" d="M721.25 506.595c-20.317 5.079-35.555 10.159-55.872 15.238-5.079 0-15.238 0-20.317 0 5.079-5.079 10.159-10.159 15.238-15.238 0 0 5.079-5.079 5.079-10.159-40.634-20.317-76.188-45.714-86.346-91.426-30.476 20.317-50.793-5.079-76.188-10.159 0-5.079 0-5.079-5.079-10.159 5.079 0 5.079-5.079 10.159-5.079 45.714-10.159 71.108-45.714 96.505-76.188 10.159-10.159 25.397-15.238 40.634-20.317 30.476 0 60.951 0 76.188-35.555 0-5.079 10.159-5.079 15.238-5.079 10.159-5.079 25.397-10.159 35.555-15.238-25.397-60.951-60.951-101.584-106.663-142.219-30.476-25.397-50.793-55.872-50.793-96.505 0-5.079-5.079-15.238-10.159-20.317-5.079 0-15.238 0-20.317 5.079-30.476 25.397-10.159 55.872-10.159 86.346 5.079 30.476 5.079 60.951 5.079 96.505 0 5.079-5.079 10.159-10.159 15.238-10.159 10.159-20.317 15.238-25.397 25.397-25.397 30.476-20.317 50.793 5.079 81.267 5.079 5.079 10.159 10.159 20.317 15.238-20.317 25.397-40.634 45.714-76.188 40.634-20.317-5.079-30.476 5.079-35.555 20.317 5.079 20.317-5.079 30.476-25.397 30.476-5.079 0-15.238 5.079-15.238 10.159-25.397 25.397-45.714 55.872-66.029 86.346-10.159 15.238-10.159 35.555-20.317 55.872-5.079 10.159-10.159 25.397-20.317 30.476-30.476 15.238-60.951 15.238-96.505 5.079 10.159 25.397 20.317 50.793 30.476 76.188 5.079 5.079 20.317 10.159 30.476 10.159s25.397 0 35.555 0c35.555 10.159 66.029 5.079 96.505-15.238 15.238-10.159 35.555-5.079 50.793-5.079 30.476 5.079 50.793 10.159 71.108 10.159 10.159 0 25.397-10.159 25.397-20.317s-10.159-20.317-20.317-25.397c-5.079-5.079-15.238-5.079-25.397-10.159 0-5.079 0-5.079-5.079-10.159 25.397-15.238 50.793-35.555 76.188-50.793 5.079 0 5.079 5.079 10.159 5.079 0 15.238 0 30.476 0 45.714s10.159 30.476 25.397 20.317c25.397-15.238 55.872-30.476 76.188-50.793 10.159-15.238 15.238-35.555 30.476-45.714zM497.764 841.823c-274.279 0-497.764-223.486-497.764-502.843 0-274.279 223.486-497.764 497.764-497.764s497.764 223.486 497.764 497.764c5.079 279.358-218.406 502.843-497.764 502.843zM497.764-92.753c-238.723 0-436.813 193.010-436.813 436.813 0 238.723 193.010 436.813 436.813 436.813s436.813-193.010 436.813-436.813c0-243.803-193.010-436.813-436.813-436.813z" />
<glyph unicode="&#xea90;" glyph-name="facebook" d="M609.784 685.496h160.47v192.564h-160.47c-123.877 0-224.657-100.78-224.657-224.657v-96.282h-128.375v-192.564h128.375v-513.502h192.564v513.502h160.47l32.093 192.564h-192.564v96.282c0 17.397 14.696 32.093 32.093 32.093z" />
<glyph unicode="&#xea96;" glyph-name="twitter" d="M1027.006 650.994c-37.711-16.848-78.43-28.081-120.954-33.096 43.527 26.075 76.825 67.398 92.67 116.542-40.72-24.070-85.852-41.723-133.792-51.15-38.514 40.92-93.273 66.395-153.85 66.395-116.341 0-210.616-94.276-210.616-210.616 0-16.448 1.806-32.496 5.415-47.941-175.113 8.827-330.367 92.67-434.271 220.245-18.054-31.090-28.484-67.398-28.484-105.909 0-73.013 37.108-137.602 93.673-175.313-34.502 1.003-66.995 10.63-95.479 26.278 0-0.803 0-1.806 0-2.609 0-102.1 72.613-187.349 169.095-206.605-17.651-4.815-36.305-7.421-55.562-7.421-13.639 0-26.678 1.403-39.717 3.812 26.878-83.646 104.706-144.623 196.776-146.429-72.211-56.565-162.877-90.264-261.766-90.264-17.051 0-33.699 1.003-50.347 3.009 93.473-59.976 204.197-94.676 323.146-94.676 387.534 0 599.555 321.14 599.555 599.555 0 9.227-0.2 18.254-0.603 27.281 41.12 29.487 76.825 66.595 105.108 108.918z" />
<glyph unicode="&#xeaca;" glyph-name="linkedin" d="M385.127 492.932h177.625v-91.049h2.538c24.712 44.323 85.207 91.049 175.355 91.049 187.495 0 222.171-116.718 222.171-268.52v-309.171h-185.152v274.080c0 65.376-1.337 149.464-96.31 149.464-96.43 0-111.145-71.194-111.145-144.715v-278.828h-185.084v577.691zM64.189 492.932h192.564v-577.691h-192.564v577.691zM256.751 653.4c0-53.175-43.107-96.282-96.282-96.282s-96.282 43.107-96.282 96.282c0 53.175 43.107 96.282 96.282 96.282s96.282-43.107 96.282-96.282z" />
</font>
</defs>
</svg>
